<svg width="267" height="20" viewBox="0 0 267 20" fill="none" xmlns="http://www.w3.org/2000/svg">
<path d="M23.765 13.905C25.035 12.885 26.03 12.05 26.75 11.4C27.47 10.74 28.075 10.055 28.565 9.345C29.065 8.625 29.315 7.92 29.315 7.23C29.315 6.58 29.155 6.07 28.835 5.7C28.525 5.32 28.02 5.13 27.32 5.13C26.64 5.13 26.11 5.345 25.73 5.775C25.36 6.195 25.16 6.76 25.13 7.47H23.81C23.85 6.35 24.19 5.485 24.83 4.875C25.47 4.265 26.295 3.96 27.305 3.96C28.335 3.96 29.15 4.245 29.75 4.815C30.36 5.385 30.665 6.17 30.665 7.17C30.665 8 30.415 8.81 29.915 9.6C29.425 10.38 28.865 11.07 28.235 11.67C27.605 12.26 26.8 12.95 25.82 13.74H30.98V14.88H23.765V13.905ZM32.5579 9.465C32.5579 7.745 32.8379 6.405 33.3979 5.445C33.9579 4.475 34.9379 3.99 36.3379 3.99C37.7279 3.99 38.7029 4.475 39.2629 5.445C39.8229 6.405 40.1029 7.745 40.1029 9.465C40.1029 11.215 39.8229 12.575 39.2629 13.545C38.7029 14.515 37.7279 15 36.3379 15C34.9379 15 33.9579 14.515 33.3979 13.545C32.8379 12.575 32.5579 11.215 32.5579 9.465ZM38.7529 9.465C38.7529 8.595 38.6929 7.86 38.5729 7.26C38.4629 6.65 38.2279 6.16 37.8679 5.79C37.5179 5.42 37.0079 5.235 36.3379 5.235C35.6579 5.235 35.1379 5.42 34.7779 5.79C34.4279 6.16 34.1929 6.65 34.0729 7.26C33.9629 7.86 33.9079 8.595 33.9079 9.465C33.9079 10.365 33.9629 11.12 34.0729 11.73C34.1929 12.34 34.4279 12.83 34.7779 13.2C35.1379 13.57 35.6579 13.755 36.3379 13.755C37.0079 13.755 37.5179 13.57 37.8679 13.2C38.2279 12.83 38.4629 12.34 38.5729 11.73C38.6929 11.12 38.7529 10.365 38.7529 9.465ZM41.8119 13.905C43.0819 12.885 44.0769 12.05 44.7969 11.4C45.5169 10.74 46.1219 10.055 46.6119 9.345C47.1119 8.625 47.3619 7.92 47.3619 7.23C47.3619 6.58 47.2019 6.07 46.8819 5.7C46.5719 5.32 46.0669 5.13 45.3669 5.13C44.6869 5.13 44.1569 5.345 43.7769 5.775C43.4069 6.195 43.2069 6.76 43.1769 7.47H41.8569C41.8969 6.35 42.2369 5.485 42.8769 4.875C43.5169 4.265 44.3419 3.96 45.3519 3.96C46.3819 3.96 47.1969 4.245 47.7969 4.815C48.4069 5.385 48.7119 6.17 48.7119 7.17C48.7119 8 48.4619 8.81 47.9619 9.6C47.4719 10.38 46.9119 11.07 46.2819 11.67C45.6519 12.26 44.8469 12.95 43.8669 13.74H49.0269V14.88H41.8119V13.905ZM50.2448 5.4V4.155H53.0648V15H51.6848V5.4H50.2448ZM65.8135 12.675H61.2535L60.4135 15H58.9735L62.7535 4.605H64.3285L68.0935 15H66.6535L65.8135 12.675ZM65.4235 11.565L63.5335 6.285L61.6435 11.565H65.4235ZM76.1759 4.545V5.655H73.3259V15H71.9609V5.655H69.0959V4.545H76.1759ZM77.3462 9.765C77.3462 8.745 77.5762 7.83 78.0362 7.02C78.4962 6.2 79.1212 5.56 79.9112 5.1C80.7112 4.64 81.5962 4.41 82.5662 4.41C83.7062 4.41 84.7012 4.685 85.5512 5.235C86.4012 5.785 87.0212 6.565 87.4112 7.575H85.7762C85.4862 6.945 85.0662 6.46 84.5162 6.12C83.9762 5.78 83.3262 5.61 82.5662 5.61C81.8362 5.61 81.1812 5.78 80.6012 6.12C80.0212 6.46 79.5662 6.945 79.2362 7.575C78.9062 8.195 78.7412 8.925 78.7412 9.765C78.7412 10.595 78.9062 11.325 79.2362 11.955C79.5662 12.575 80.0212 13.055 80.6012 13.395C81.1812 13.735 81.8362 13.905 82.5662 13.905C83.3262 13.905 83.9762 13.74 84.5162 13.41C85.0662 13.07 85.4862 12.585 85.7762 11.955H87.4112C87.0212 12.955 86.4012 13.73 85.5512 14.28C84.7012 14.82 83.7062 15.09 82.5662 15.09C81.5962 15.09 80.7112 14.865 79.9112 14.415C79.1212 13.955 78.4962 13.32 78.0362 12.51C77.5762 11.7 77.3462 10.785 77.3462 9.765ZM101.497 4.545V15H100.132V10.26H94.8071V15H93.4421V4.545H94.8071V9.135H100.132V4.545H101.497ZM111.118 6.78V15H109.753V13.785C109.493 14.205 109.128 14.535 108.658 14.775C108.198 15.005 107.688 15.12 107.128 15.12C106.488 15.12 105.913 14.99 105.403 14.73C104.893 14.46 104.488 14.06 104.188 13.53C103.898 13 103.753 12.355 103.753 11.595V6.78H105.103V11.415C105.103 12.225 105.308 12.85 105.718 13.29C106.128 13.72 106.688 13.935 107.398 13.935C108.128 13.935 108.703 13.71 109.123 13.26C109.543 12.81 109.753 12.155 109.753 11.295V6.78H111.118ZM114.788 8.31C115.068 7.82 115.478 7.42 116.018 7.11C116.558 6.8 117.173 6.645 117.863 6.645C118.603 6.645 119.268 6.82 119.858 7.17C120.448 7.52 120.913 8.015 121.253 8.655C121.593 9.285 121.763 10.02 121.763 10.86C121.763 11.69 121.593 12.43 121.253 13.08C120.913 13.73 120.443 14.235 119.843 14.595C119.253 14.955 118.593 15.135 117.863 15.135C117.153 15.135 116.528 14.98 115.988 14.67C115.458 14.36 115.058 13.965 114.788 13.485V15H113.423V3.9H114.788V8.31ZM120.368 10.86C120.368 10.24 120.243 9.7 119.993 9.24C119.743 8.78 119.403 8.43 118.973 8.19C118.553 7.95 118.088 7.83 117.578 7.83C117.078 7.83 116.613 7.955 116.183 8.205C115.763 8.445 115.423 8.8 115.163 9.27C114.913 9.73 114.788 10.265 114.788 10.875C114.788 11.495 114.913 12.04 115.163 12.51C115.423 12.97 115.763 13.325 116.183 13.575C116.613 13.815 117.078 13.935 117.578 13.935C118.088 13.935 118.553 13.815 118.973 13.575C119.403 13.325 119.743 12.97 119.993 12.51C120.243 12.04 120.368 11.49 120.368 10.86ZM123.994 15.09C123.734 15.09 123.514 15 123.334 14.82C123.154 14.64 123.064 14.42 123.064 14.16C123.064 13.9 123.154 13.68 123.334 13.5C123.514 13.32 123.734 13.23 123.994 13.23C124.244 13.23 124.454 13.32 124.624 13.5C124.804 13.68 124.894 13.9 124.894 14.16C124.894 14.42 124.804 14.64 124.624 14.82C124.454 15 124.244 15.09 123.994 15.09ZM136.888 12.675H132.328L131.488 15H130.048L133.828 4.605H135.403L139.168 15H137.728L136.888 12.675ZM136.498 11.565L134.608 6.285L132.718 11.565H136.498ZM142.18 3.9V15H140.815V3.9H142.18ZM145.872 3.9V15H144.507V3.9H145.872ZM153.562 8.115C153.802 7.645 154.142 7.28 154.582 7.02C155.032 6.76 155.577 6.63 156.217 6.63V8.04H155.857C154.327 8.04 153.562 8.87 153.562 10.53V15H152.197V6.78H153.562V8.115ZM158.498 5.445C158.238 5.445 158.018 5.355 157.838 5.175C157.658 4.995 157.568 4.775 157.568 4.515C157.568 4.255 157.658 4.035 157.838 3.855C158.018 3.675 158.238 3.585 158.498 3.585C158.748 3.585 158.958 3.675 159.128 3.855C159.308 4.035 159.398 4.255 159.398 4.515C159.398 4.775 159.308 4.995 159.128 5.175C158.958 5.355 158.748 5.445 158.498 5.445ZM159.158 6.78V15H157.793V6.78H159.158ZM164.874 6.645C165.584 6.645 166.204 6.8 166.734 7.11C167.274 7.42 167.674 7.81 167.934 8.28V6.78H169.314V15.18C169.314 15.93 169.154 16.595 168.834 17.175C168.514 17.765 168.054 18.225 167.454 18.555C166.864 18.885 166.174 19.05 165.384 19.05C164.304 19.05 163.404 18.795 162.684 18.285C161.964 17.775 161.539 17.08 161.409 16.2H162.759C162.909 16.7 163.219 17.1 163.689 17.4C164.159 17.71 164.724 17.865 165.384 17.865C166.134 17.865 166.744 17.63 167.214 17.16C167.694 16.69 167.934 16.03 167.934 15.18V13.455C167.664 13.935 167.264 14.335 166.734 14.655C166.204 14.975 165.584 15.135 164.874 15.135C164.144 15.135 163.479 14.955 162.879 14.595C162.289 14.235 161.824 13.73 161.484 13.08C161.144 12.43 160.974 11.69 160.974 10.86C160.974 10.02 161.144 9.285 161.484 8.655C161.824 8.015 162.289 7.52 162.879 7.17C163.479 6.82 164.144 6.645 164.874 6.645ZM167.934 10.875C167.934 10.255 167.809 9.715 167.559 9.255C167.309 8.795 166.969 8.445 166.539 8.205C166.119 7.955 165.654 7.83 165.144 7.83C164.634 7.83 164.169 7.95 163.749 8.19C163.329 8.43 162.994 8.78 162.744 9.24C162.494 9.7 162.369 10.24 162.369 10.86C162.369 11.49 162.494 12.04 162.744 12.51C162.994 12.97 163.329 13.325 163.749 13.575C164.169 13.815 164.634 13.935 165.144 13.935C165.654 13.935 166.119 13.815 166.539 13.575C166.969 13.325 167.309 12.97 167.559 12.51C167.809 12.04 167.934 11.495 167.934 10.875ZM175.701 6.63C176.321 6.63 176.881 6.765 177.381 7.035C177.881 7.295 178.271 7.69 178.551 8.22C178.841 8.75 178.986 9.395 178.986 10.155V15H177.636V10.35C177.636 9.53 177.431 8.905 177.021 8.475C176.611 8.035 176.051 7.815 175.341 7.815C174.621 7.815 174.046 8.04 173.616 8.49C173.196 8.94 172.986 9.595 172.986 10.455V15H171.621V3.9H172.986V7.95C173.256 7.53 173.626 7.205 174.096 6.975C174.576 6.745 175.111 6.63 175.701 6.63ZM182.881 7.905V12.75C182.881 13.15 182.966 13.435 183.136 13.605C183.306 13.765 183.601 13.845 184.021 13.845H185.026V15H183.796C183.036 15 182.466 14.825 182.086 14.475C181.706 14.125 181.516 13.55 181.516 12.75V7.905H180.451V6.78H181.516V4.71H182.881V6.78H185.026V7.905H182.881ZM189.589 15.135C188.959 15.135 188.394 15.03 187.894 14.82C187.394 14.6 186.999 14.3 186.709 13.92C186.419 13.53 186.259 13.085 186.229 12.585H187.639C187.679 12.995 187.869 13.33 188.209 13.59C188.559 13.85 189.014 13.98 189.574 13.98C190.094 13.98 190.504 13.865 190.804 13.635C191.104 13.405 191.254 13.115 191.254 12.765C191.254 12.405 191.094 12.14 190.774 11.97C190.454 11.79 189.959 11.615 189.289 11.445C188.679 11.285 188.179 11.125 187.789 10.965C187.409 10.795 187.079 10.55 186.799 10.23C186.529 9.9 186.394 9.47 186.394 8.94C186.394 8.52 186.519 8.135 186.769 7.785C187.019 7.435 187.374 7.16 187.834 6.96C188.294 6.75 188.819 6.645 189.409 6.645C190.319 6.645 191.054 6.875 191.614 7.335C192.174 7.795 192.474 8.425 192.514 9.225H191.149C191.119 8.795 190.944 8.45 190.624 8.19C190.314 7.93 189.894 7.8 189.364 7.8C188.874 7.8 188.484 7.905 188.194 8.115C187.904 8.325 187.759 8.6 187.759 8.94C187.759 9.21 187.844 9.435 188.014 9.615C188.194 9.785 188.414 9.925 188.674 10.035C188.944 10.135 189.314 10.25 189.784 10.38C190.374 10.54 190.854 10.7 191.224 10.86C191.594 11.01 191.909 11.24 192.169 11.55C192.439 11.86 192.579 12.265 192.589 12.765C192.589 13.215 192.464 13.62 192.214 13.98C191.964 14.34 191.609 14.625 191.149 14.835C190.699 15.035 190.179 15.135 189.589 15.135ZM199.88 8.115C200.12 7.645 200.46 7.28 200.9 7.02C201.35 6.76 201.895 6.63 202.535 6.63V8.04H202.175C200.645 8.04 199.88 8.87 199.88 10.53V15H198.515V6.78H199.88V8.115ZM211.611 10.575C211.611 10.835 211.596 11.11 211.566 11.4H204.996C205.046 12.21 205.321 12.845 205.821 13.305C206.331 13.755 206.946 13.98 207.666 13.98C208.256 13.98 208.746 13.845 209.136 13.575C209.536 13.295 209.816 12.925 209.976 12.465H211.446C211.226 13.255 210.786 13.9 210.126 14.4C209.466 14.89 208.646 15.135 207.666 15.135C206.886 15.135 206.186 14.96 205.566 14.61C204.956 14.26 204.476 13.765 204.126 13.125C203.776 12.475 203.601 11.725 203.601 10.875C203.601 10.025 203.771 9.28 204.111 8.64C204.451 8 204.926 7.51 205.536 7.17C206.156 6.82 206.866 6.645 207.666 6.645C208.446 6.645 209.136 6.815 209.736 7.155C210.336 7.495 210.796 7.965 211.116 8.565C211.446 9.155 211.611 9.825 211.611 10.575ZM210.201 10.29C210.201 9.77 210.086 9.325 209.856 8.955C209.626 8.575 209.311 8.29 208.911 8.1C208.521 7.9 208.086 7.8 207.606 7.8C206.916 7.8 206.326 8.02 205.836 8.46C205.356 8.9 205.081 9.51 205.011 10.29H210.201ZM216.323 15.135C215.693 15.135 215.128 15.03 214.628 14.82C214.128 14.6 213.733 14.3 213.443 13.92C213.153 13.53 212.993 13.085 212.963 12.585H214.373C214.413 12.995 214.603 13.33 214.943 13.59C215.293 13.85 215.748 13.98 216.308 13.98C216.828 13.98 217.238 13.865 217.538 13.635C217.838 13.405 217.988 13.115 217.988 12.765C217.988 12.405 217.828 12.14 217.508 11.97C217.188 11.79 216.693 11.615 216.023 11.445C215.413 11.285 214.913 11.125 214.523 10.965C214.143 10.795 213.813 10.55 213.533 10.23C213.263 9.9 213.128 9.47 213.128 8.94C213.128 8.52 213.253 8.135 213.503 7.785C213.753 7.435 214.108 7.16 214.568 6.96C215.028 6.75 215.553 6.645 216.143 6.645C217.053 6.645 217.788 6.875 218.348 7.335C218.908 7.795 219.208 8.425 219.248 9.225H217.883C217.853 8.795 217.678 8.45 217.358 8.19C217.048 7.93 216.628 7.8 216.098 7.8C215.608 7.8 215.218 7.905 214.928 8.115C214.638 8.325 214.493 8.6 214.493 8.94C214.493 9.21 214.578 9.435 214.748 9.615C214.928 9.785 215.148 9.925 215.408 10.035C215.678 10.135 216.048 10.25 216.518 10.38C217.108 10.54 217.588 10.7 217.958 10.86C218.328 11.01 218.643 11.24 218.903 11.55C219.173 11.86 219.313 12.265 219.323 12.765C219.323 13.215 219.198 13.62 218.948 13.98C218.698 14.34 218.343 14.625 217.883 14.835C217.433 15.035 216.913 15.135 216.323 15.135ZM228.75 10.575C228.75 10.835 228.735 11.11 228.705 11.4H222.135C222.185 12.21 222.46 12.845 222.96 13.305C223.47 13.755 224.085 13.98 224.805 13.98C225.395 13.98 225.885 13.845 226.275 13.575C226.675 13.295 226.955 12.925 227.115 12.465H228.585C228.365 13.255 227.925 13.9 227.265 14.4C226.605 14.89 225.785 15.135 224.805 15.135C224.025 15.135 223.325 14.96 222.705 14.61C222.095 14.26 221.615 13.765 221.265 13.125C220.915 12.475 220.74 11.725 220.74 10.875C220.74 10.025 220.91 9.28 221.25 8.64C221.59 8 222.065 7.51 222.675 7.17C223.295 6.82 224.005 6.645 224.805 6.645C225.585 6.645 226.275 6.815 226.875 7.155C227.475 7.495 227.935 7.965 228.255 8.565C228.585 9.155 228.75 9.825 228.75 10.575ZM227.34 10.29C227.34 9.77 227.225 9.325 226.995 8.955C226.765 8.575 226.45 8.29 226.05 8.1C225.66 7.9 225.225 7.8 224.745 7.8C224.055 7.8 223.465 8.02 222.975 8.46C222.495 8.9 222.22 9.51 222.15 10.29H227.34ZM231.916 8.115C232.156 7.645 232.496 7.28 232.936 7.02C233.386 6.76 233.931 6.63 234.571 6.63V8.04H234.211C232.681 8.04 231.916 8.87 231.916 10.53V15H230.551V6.78H231.916V8.115ZM239.207 13.74L241.757 6.78H243.212L239.987 15H238.397L235.172 6.78H236.642L239.207 13.74ZM252.055 10.575C252.055 10.835 252.04 11.11 252.01 11.4H245.44C245.49 12.21 245.765 12.845 246.265 13.305C246.775 13.755 247.39 13.98 248.11 13.98C248.7 13.98 249.19 13.845 249.58 13.575C249.98 13.295 250.26 12.925 250.42 12.465H251.89C251.67 13.255 251.23 13.9 250.57 14.4C249.91 14.89 249.09 15.135 248.11 15.135C247.33 15.135 246.63 14.96 246.01 14.61C245.4 14.26 244.92 13.765 244.57 13.125C244.22 12.475 244.045 11.725 244.045 10.875C244.045 10.025 244.215 9.28 244.555 8.64C244.895 8 245.37 7.51 245.98 7.17C246.6 6.82 247.31 6.645 248.11 6.645C248.89 6.645 249.58 6.815 250.18 7.155C250.78 7.495 251.24 7.965 251.56 8.565C251.89 9.155 252.055 9.825 252.055 10.575ZM250.645 10.29C250.645 9.77 250.53 9.325 250.3 8.955C250.07 8.575 249.755 8.29 249.355 8.1C248.965 7.9 248.53 7.8 248.05 7.8C247.36 7.8 246.77 8.02 246.28 8.46C245.8 8.9 245.525 9.51 245.455 10.29H250.645ZM253.347 10.86C253.347 10.02 253.517 9.285 253.857 8.655C254.197 8.015 254.662 7.52 255.252 7.17C255.852 6.82 256.522 6.645 257.262 6.645C257.902 6.645 258.497 6.795 259.047 7.095C259.597 7.385 260.017 7.77 260.307 8.25V3.9H261.687V15H260.307V13.455C260.037 13.945 259.637 14.35 259.107 14.67C258.577 14.98 257.957 15.135 257.247 15.135C256.517 15.135 255.852 14.955 255.252 14.595C254.662 14.235 254.197 13.73 253.857 13.08C253.517 12.43 253.347 11.69 253.347 10.86ZM260.307 10.875C260.307 10.255 260.182 9.715 259.932 9.255C259.682 8.795 259.342 8.445 258.912 8.205C258.492 7.955 258.027 7.83 257.517 7.83C257.007 7.83 256.542 7.95 256.122 8.19C255.702 8.43 255.367 8.78 255.117 9.24C254.867 9.7 254.742 10.24 254.742 10.86C254.742 11.49 254.867 12.04 255.117 12.51C255.367 12.97 255.702 13.325 256.122 13.575C256.542 13.815 257.007 13.935 257.517 13.935C258.027 13.935 258.492 13.815 258.912 13.575C259.342 13.325 259.682 12.97 259.932 12.51C260.182 12.04 260.307 11.495 260.307 10.875ZM264.429 15.09C264.169 15.09 263.949 15 263.769 14.82C263.589 14.64 263.499 14.42 263.499 14.16C263.499 13.9 263.589 13.68 263.769 13.5C263.949 13.32 264.169 13.23 264.429 13.23C264.679 13.23 264.889 13.32 265.059 13.5C265.239 13.68 265.329 13.9 265.329 14.16C265.329 14.42 265.239 14.64 265.059 14.82C264.889 15 264.679 15.09 264.429 15.09Z" fill="#E5E5E5"/>
<path d="M6.5 3C10.088 3 13 5.912 13 9.5C13 13.088 10.088 16 6.5 16C2.912 16 0 13.088 0 9.5C0 5.912 2.912 3 6.5 3ZM6.5 4.3C3.627 4.3 1.3 6.627 1.3 9.5C1.3 12.373 3.627 14.7 6.5 14.7C9.373 14.7 11.7 12.373 11.7 9.5C11.7 6.627 9.373 4.3 6.5 4.3ZM6.5 6.25C7.683 6.25 8.71845 6.88245 9.2872 7.8282L8.1731 8.49705C7.99777 8.20471 7.74887 7.96344 7.45121 7.79729C7.15355 7.63115 6.81754 7.54593 6.47668 7.55015C6.13581 7.55437 5.80201 7.64787 5.50856 7.82132C5.2151 7.99478 4.97224 8.24214 4.8042 8.53873C4.63615 8.83532 4.54879 9.17078 4.55083 9.51166C4.55287 9.85254 4.64424 10.1869 4.81582 10.4815C4.9874 10.7761 5.23319 11.0205 5.52871 11.1904C5.82422 11.3604 6.15911 11.4499 6.5 11.45C6.83679 11.4502 7.16788 11.3632 7.46099 11.1973C7.7541 11.0314 7.99923 10.7924 8.17245 10.5036L9.2872 11.1718C8.92191 11.7819 8.36657 12.2553 7.70635 12.5195C7.04613 12.7836 6.31749 12.8239 5.63218 12.6341C4.94688 12.4443 4.34274 12.035 3.91244 11.4689C3.48214 10.9028 3.24943 10.2111 3.25 9.5C3.25 7.706 4.706 6.25 6.5 6.25Z" fill="#E5E5E5"/>
</svg>
