<svg width="181" height="25" viewBox="0 0 181 25" fill="none" xmlns="http://www.w3.org/2000/svg">
<path d="M0.0737274 9.275C0.0737274 7.575 0.465394 6.05 1.24873 4.7C2.04873 3.35 3.12373 2.3 4.47373 1.55C5.84039 0.783332 7.33206 0.399999 8.94873 0.399999C10.7987 0.399999 12.4404 0.858332 13.8737 1.775C15.3237 2.675 16.3737 3.95833 17.0237 5.625H13.5987C13.1487 4.70833 12.5237 4.025 11.7237 3.575C10.9237 3.125 9.99873 2.9 8.94873 2.9C7.79873 2.9 6.77373 3.15833 5.87373 3.675C4.97373 4.19167 4.26539 4.93333 3.74873 5.9C3.24873 6.86667 2.99873 7.99167 2.99873 9.275C2.99873 10.5583 3.24873 11.6833 3.74873 12.65C4.26539 13.6167 4.97373 14.3667 5.87373 14.9C6.77373 15.4167 7.79873 15.675 8.94873 15.675C9.99873 15.675 10.9237 15.45 11.7237 15C12.5237 14.55 13.1487 13.8667 13.5987 12.95H17.0237C16.3737 14.6167 15.3237 15.9 13.8737 16.8C12.4404 17.7 10.7987 18.15 8.94873 18.15C7.31539 18.15 5.82373 17.775 4.47373 17.025C3.12373 16.2583 2.04873 15.2 1.24873 13.85C0.465394 12.5 0.0737274 10.975 0.0737274 9.275ZM23.5097 2.925V8.025H29.5097V10.35H23.5097V15.675H30.2597V18H20.6597V0.599999H30.2597V2.925H23.5097ZM43.095 18L39.095 11.05H36.92V18H34.07V0.624999H40.07C41.4033 0.624999 42.5283 0.858332 43.445 1.325C44.3783 1.79167 45.07 2.41667 45.52 3.2C45.9867 3.98333 46.22 4.85833 46.22 5.825C46.22 6.95833 45.8867 7.99167 45.22 8.925C44.57 9.84167 43.5617 10.4667 42.195 10.8L46.495 18H43.095ZM36.92 8.775H40.07C41.1367 8.775 41.9367 8.50833 42.47 7.975C43.02 7.44167 43.295 6.725 43.295 5.825C43.295 4.925 43.0283 4.225 42.495 3.725C41.9617 3.20833 41.1533 2.95 40.07 2.95H36.92V8.775ZM61.3909 0.624999V2.95H56.7659V18H53.9159V2.95H49.2659V0.624999H61.3909ZM67.4272 0.624999V18H64.5772V0.624999H67.4272ZM81.694 0.624999V2.95H74.319V8.075H80.069V10.4H74.319V18H71.469V0.624999H81.694ZM97.5103 0.624999L91.7603 11.7V18H88.9103V11.7L83.1353 0.624999H86.3103L90.3353 9.15L94.3603 0.624999H97.5103ZM102.922 0.624999V18H100.072V0.624999H102.922ZM121.239 18H118.389L109.814 5.025V18H106.964V0.599999H109.814L118.389 13.55V0.599999H121.239V18ZM137.856 5.625C137.406 4.75833 136.781 4.10833 135.981 3.675C135.181 3.225 134.256 3 133.206 3C132.056 3 131.031 3.25833 130.131 3.775C129.231 4.29167 128.523 5.025 128.006 5.975C127.506 6.925 127.256 8.025 127.256 9.275C127.256 10.525 127.506 11.6333 128.006 12.6C128.523 13.55 129.231 14.2833 130.131 14.8C131.031 15.3167 132.056 15.575 133.206 15.575C134.756 15.575 136.015 15.1417 136.981 14.275C137.948 13.4083 138.54 12.2333 138.756 10.75H132.231V8.475H141.806V10.7C141.623 12.05 141.14 13.2917 140.356 14.425C139.59 15.5583 138.581 16.4667 137.331 17.15C136.098 17.8167 134.723 18.15 133.206 18.15C131.573 18.15 130.081 17.775 128.731 17.025C127.381 16.2583 126.306 15.2 125.506 13.85C124.723 12.5 124.331 10.975 124.331 9.275C124.331 7.575 124.723 6.05 125.506 4.7C126.306 3.35 127.381 2.3 128.731 1.55C130.098 0.783332 131.59 0.399999 133.206 0.399999C135.056 0.399999 136.698 0.858332 138.131 1.775C139.581 2.675 140.631 3.95833 141.281 5.625H137.856ZM146.067 18.175C145.551 18.175 145.117 18 144.767 17.65C144.417 17.3 144.242 16.8667 144.242 16.35C144.242 15.8333 144.417 15.4 144.767 15.05C145.117 14.7 145.551 14.525 146.067 14.525C146.567 14.525 146.992 14.7 147.342 15.05C147.692 15.4 147.867 15.8333 147.867 16.35C147.867 16.8667 147.692 17.3 147.342 17.65C146.992 18 146.567 18.175 146.067 18.175ZM158.198 4C159.281 4 160.248 4.225 161.098 4.675C161.964 5.125 162.639 5.79167 163.123 6.675C163.606 7.55833 163.848 8.625 163.848 9.875V18H161.023V10.3C161.023 9.06667 160.714 8.125 160.098 7.475C159.481 6.80833 158.639 6.475 157.573 6.475C156.506 6.475 155.656 6.80833 155.023 7.475C154.406 8.125 154.098 9.06667 154.098 10.3V18H151.248V4.225H154.098V5.8C154.564 5.23333 155.156 4.79167 155.873 4.475C156.606 4.15833 157.381 4 158.198 4ZM173.333 4C174.4 4 175.341 4.21667 176.158 4.65C176.991 5.06667 177.641 5.59167 178.108 6.225V4.225H180.983V18.225C180.983 19.4917 180.716 20.6167 180.183 21.6C179.65 22.6 178.875 23.3833 177.858 23.95C176.858 24.5167 175.658 24.8 174.258 24.8C172.391 24.8 170.841 24.3583 169.608 23.475C168.375 22.6083 167.675 21.425 167.508 19.925H170.333C170.55 20.6417 171.008 21.2167 171.708 21.65C172.425 22.1 173.275 22.325 174.258 22.325C175.408 22.325 176.333 21.975 177.033 21.275C177.75 20.575 178.108 19.5583 178.108 18.225V15.925C177.625 16.575 176.966 17.125 176.133 17.575C175.316 18.0083 174.383 18.225 173.333 18.225C172.133 18.225 171.033 17.925 170.033 17.325C169.05 16.7083 168.266 15.8583 167.683 14.775C167.116 13.675 166.833 12.4333 166.833 11.05C166.833 9.66667 167.116 8.44167 167.683 7.375C168.266 6.30833 169.05 5.48333 170.033 4.9C171.033 4.3 172.133 4 173.333 4ZM178.108 11.1C178.108 10.15 177.908 9.325 177.508 8.625C177.125 7.925 176.616 7.39167 175.983 7.025C175.35 6.65833 174.666 6.475 173.933 6.475C173.2 6.475 172.516 6.65833 171.883 7.025C171.25 7.375 170.733 7.9 170.333 8.6C169.95 9.28333 169.758 10.1 169.758 11.05C169.758 12 169.95 12.8333 170.333 13.55C170.733 14.2667 171.25 14.8167 171.883 15.2C172.533 15.5667 173.216 15.75 173.933 15.75C174.666 15.75 175.35 15.5667 175.983 15.2C176.616 14.8333 177.125 14.3 177.508 13.6C177.908 12.8833 178.108 12.05 178.108 11.1Z" fill="white"/>
</svg>
